<svg width="329" height="350" viewBox="0 0 329 350" fill="none" xmlns="http://www.w3.org/2000/svg">
<g filter="url(#filter0_d_957_265)">
<path d="M186.014 183.656C180.985 182.808 177.048 180.207 174.201 175.854C171.355 171.501 170.547 166.809 171.779 161.777C173.906 152.567 177.303 144.825 181.971 138.55C186.639 132.275 193.437 126.132 202.367 120.12C212.242 113.584 219.907 107.756 225.362 102.634C230.817 97.5127 234.146 91.1851 235.349 83.6515C236.812 74.5579 235.146 66.5313 230.352 59.5716C225.557 52.612 218.023 48.2657 207.748 46.5327C201.043 45.4018 195.09 45.9378 189.889 48.1406C184.689 50.3435 180.27 53.4118 176.633 57.3455C172.986 61.2866 168.892 63.6716 164.351 64.5005C159.81 65.3293 155.688 64.5201 151.984 62.0729C147.522 59.0421 144.813 54.8262 143.856 49.4252C142.9 44.0242 144.032 39.3171 147.251 35.3038C154.933 26.3479 164.442 19.4087 175.779 14.4865C187.116 9.56423 199.699 8.2693 213.527 10.6017C235.527 14.3123 251.405 23.6516 261.161 38.6196C270.917 53.5877 274.327 70.169 271.392 88.3638C269.608 99.4536 265.832 108.558 260.064 115.677C254.297 122.796 245.788 130.528 234.537 138.873C226.272 144.769 220.316 149.688 216.669 153.629C213.022 157.57 210.211 162.336 208.236 167.926C206.506 173.329 203.574 177.505 199.442 180.453C195.309 183.401 190.833 184.468 186.014 183.656ZM172.856 263.449C165.942 262.283 160.44 258.676 156.351 252.628C152.263 246.58 150.81 239.902 151.995 232.593C153.172 225.274 156.644 219.421 162.411 215.036C168.178 210.65 174.514 209.045 181.418 210.218C188.333 211.384 193.834 214.991 197.923 221.039C202.012 227.087 203.464 233.765 202.28 241.074C201.103 248.394 197.631 254.246 191.863 258.632C186.096 263.017 179.761 264.623 172.856 263.449Z" fill="url(#paint0_linear_957_265)" fill-opacity="0.4"/>
<path d="M91.9533 230.589C88.6558 232.129 85.3243 232.191 81.9588 230.776C78.5932 229.361 76.3001 226.918 75.0794 223.447C72.7708 217.146 71.7803 211.196 72.1078 205.596C72.4353 199.997 74.0719 193.61 77.0177 186.436C80.3188 178.569 82.5887 172.017 83.8274 166.779C85.0662 161.541 84.5828 156.453 82.3774 151.517C79.7213 145.553 75.631 141.49 70.1063 139.327C64.5816 137.163 58.4503 137.655 51.7125 140.801C47.3159 142.855 44.0084 145.587 41.7901 148.999C39.5719 152.41 38.1502 156.015 37.5252 159.814C36.8973 163.621 35.4032 166.691 33.0428 169.023C30.6824 171.356 27.9351 172.551 24.8009 172.609C20.993 172.631 17.7615 171.241 15.1064 168.44C12.4514 165.639 11.2977 162.4 11.6453 158.724C12.7146 150.318 15.6437 142.361 20.4326 134.854C25.2215 127.346 32.1499 121.475 41.218 117.24C55.6444 110.502 68.6346 109.572 80.1885 114.451C91.7425 119.33 100.174 127.736 105.483 139.671C108.722 146.943 110.017 153.852 109.366 160.396C108.716 166.94 106.685 174.959 103.271 184.453C100.673 191.289 99.0599 196.61 98.4319 200.418C97.804 204.225 97.9888 208.18 98.9861 212.282C100.056 216.175 99.9414 219.83 98.6422 223.248C97.343 226.666 95.1133 229.113 91.9533 230.589ZM115.068 283.044C110.534 285.162 105.89 285.265 101.135 283.353C96.3794 281.442 92.937 278.088 90.8073 273.292C88.6695 268.492 88.4546 263.627 90.1624 258.697C91.8703 253.767 94.9898 250.247 99.5209 248.138C104.055 246.021 108.7 245.918 113.455 247.829C118.21 249.741 121.652 253.095 123.782 257.891C125.92 262.691 126.135 267.555 124.427 272.485C122.719 277.416 119.599 280.935 115.068 283.044Z" fill="url(#paint1_linear_957_265)" fill-opacity="0.4"/>
<path d="M241.98 289.03C239.559 287.408 238.097 285.132 237.593 282.203C237.09 279.273 237.722 276.646 239.489 274.322C242.657 270.039 246.156 266.816 249.986 264.654C253.816 262.492 258.724 260.898 264.708 259.874C271.301 258.799 276.588 257.573 280.568 256.194C284.549 254.816 287.696 252.312 290.008 248.682C292.805 244.303 293.738 239.743 292.808 235.002C291.877 230.261 288.937 226.233 283.989 222.92C280.761 220.757 277.549 219.637 274.354 219.559C271.16 219.482 268.177 220.037 265.407 221.226C262.63 222.416 259.97 222.693 257.426 222.056C254.882 221.42 252.922 220.031 251.547 217.89C249.908 215.268 249.446 212.442 250.159 209.412C250.872 206.383 252.515 204.204 255.086 202.876C261.082 200.029 267.575 198.659 274.566 198.766C281.557 198.873 288.382 201.156 295.041 205.616C305.636 212.712 311.789 221.292 313.503 231.358C315.216 241.424 313.272 250.836 307.671 259.596C304.26 264.937 300.26 268.778 295.669 271.121C291.079 273.463 284.927 275.48 277.214 277.171C271.601 278.291 267.405 279.446 264.628 280.636C261.851 281.827 259.324 283.641 257.046 286.08C254.936 288.48 252.479 289.96 249.672 290.521C246.865 291.081 244.301 290.584 241.98 289.03ZM217.27 327.38C213.94 325.15 211.891 321.984 211.122 317.882C210.354 313.781 211.096 309.971 213.348 306.453C215.599 302.929 218.714 300.705 222.692 299.782C226.669 298.859 230.32 299.514 233.643 301.745C236.972 303.975 239.021 307.141 239.79 311.243C240.559 315.344 239.817 319.154 237.564 322.672C235.313 326.196 232.198 328.42 228.221 329.343C224.243 330.266 220.593 329.611 217.27 327.38Z" fill="url(#paint2_linear_957_265)" fill-opacity="0.4"/>
</g>
<defs>
<filter id="filter0_d_957_265" x="7.58496" y="9.47656" width="310.52" height="328.271" filterUnits="userSpaceOnUse" color-interpolation-filters="sRGB">
<feFlood flood-opacity="0" result="BackgroundImageFix"/>
<feColorMatrix in="SourceAlpha" type="matrix" values="0 0 0 0 0 0 0 0 0 0 0 0 0 0 0 0 0 0 127 0" result="hardAlpha"/>
<feOffset dy="4"/>
<feGaussianBlur stdDeviation="2"/>
<feComposite in2="hardAlpha" operator="out"/>
<feColorMatrix type="matrix" values="0 0 0 0 0 0 0 0 0 0 0 0 0 0 0 0 0 0 0.25 0"/>
<feBlend mode="normal" in2="BackgroundImageFix" result="effect1_dropShadow_957_265"/>
<feBlend mode="normal" in="SourceGraphic" in2="effect1_dropShadow_957_265" result="shape"/>
</filter>
<linearGradient id="paint0_linear_957_265" x1="173.012" y1="31.163" x2="320.296" y2="549.62" gradientUnits="userSpaceOnUse">
<stop stop-color="#E257F9"/>
<stop offset="0.635417" stop-color="#9723A9" stop-opacity="0.93"/>
</linearGradient>
<linearGradient id="paint1_linear_957_265" x1="25.2537" y1="145.824" x2="315.546" y2="389.009" gradientUnits="userSpaceOnUse">
<stop stop-color="#E257F9"/>
<stop offset="0.635417" stop-color="#9723A9" stop-opacity="0.93"/>
</linearGradient>
<linearGradient id="paint2_linear_957_265" x1="269.393" y1="206.777" x2="223.976" y2="509.779" gradientUnits="userSpaceOnUse">
<stop stop-color="#E257F9"/>
<stop offset="0.635417" stop-color="#9723A9" stop-opacity="0.93"/>
</linearGradient>
</defs>
</svg>
