<svg width="108" height="55" viewBox="0 0 108 55" fill="none" xmlns="http://www.w3.org/2000/svg">
<path d="M61.2793 15.7754C60.1764 15.7754 59.1829 15.9668 58.2988 16.3496C57.4238 16.7233 56.6764 17.2702 56.0566 17.9902C55.446 18.7012 54.9766 19.5625 54.6484 20.5742C54.3203 21.5859 54.1562 22.7253 54.1562 23.9922C54.1562 25.6693 54.416 27.1276 54.9355 28.3672C55.4642 29.5977 56.248 30.5501 57.2871 31.2246C58.3353 31.8991 59.6432 32.2363 61.2109 32.2363C62.1042 32.2363 62.9427 32.1634 63.7266 32.0176C64.5195 31.8626 65.2897 31.6712 66.0371 31.4434V33.4668C65.3079 33.7402 64.5423 33.9408 63.7402 34.0684C62.9382 34.2051 61.9857 34.2734 60.8828 34.2734C58.8503 34.2734 57.1504 33.8542 55.7832 33.0156C54.4251 32.168 53.4043 30.974 52.7207 29.4336C52.0462 27.8932 51.709 26.0749 51.709 23.9785C51.709 22.4655 51.9186 21.0846 52.3379 19.8359C52.7663 18.5781 53.3861 17.4935 54.1973 16.582C55.0176 15.6706 56.0202 14.9688 57.2051 14.4766C58.3991 13.9753 59.7663 13.7246 61.3066 13.7246C62.3184 13.7246 63.2936 13.8249 64.2324 14.0254C65.1712 14.2259 66.0189 14.513 66.7754 14.8867L65.8457 16.8555C65.2077 16.5638 64.5059 16.3132 63.7402 16.1035C62.9837 15.8848 62.1634 15.7754 61.2793 15.7754ZM75.6348 18.7695C77.4212 18.7695 78.7474 19.1706 79.6133 19.9727C80.4792 20.7747 80.9121 22.0553 80.9121 23.8145V34H79.2578L78.8203 31.7852H78.7109C78.2917 32.332 77.8542 32.7923 77.3984 33.166C76.9427 33.5306 76.4141 33.8086 75.8125 34C75.2201 34.1823 74.4909 34.2734 73.625 34.2734C72.7135 34.2734 71.9023 34.1139 71.1914 33.7949C70.4896 33.4759 69.9336 32.9928 69.5234 32.3457C69.1224 31.6986 68.9219 30.8783 68.9219 29.8848C68.9219 28.39 69.5143 27.2415 70.6992 26.4395C71.8841 25.6374 73.6888 25.1999 76.1133 25.127L78.6973 25.0176V24.1016C78.6973 22.8073 78.4193 21.9004 77.8633 21.3809C77.3073 20.8613 76.5234 20.6016 75.5117 20.6016C74.7279 20.6016 73.9805 20.7155 73.2695 20.9434C72.5586 21.1712 71.8841 21.4401 71.2461 21.75L70.5488 20.0273C71.2233 19.681 71.998 19.3848 72.873 19.1387C73.748 18.8926 74.6686 18.7695 75.6348 18.7695ZM78.6699 26.6172L76.3867 26.7129C74.5182 26.7858 73.2012 27.0911 72.4355 27.6289C71.6699 28.1667 71.2871 28.9277 71.2871 29.9121C71.2871 30.7689 71.5469 31.4023 72.0664 31.8125C72.5859 32.2227 73.2741 32.4277 74.1309 32.4277C75.4616 32.4277 76.5508 32.0586 77.3984 31.3203C78.2461 30.582 78.6699 29.4746 78.6699 27.998V26.6172ZM92.3965 18.7422C92.6973 18.7422 93.0117 18.7604 93.3398 18.7969C93.668 18.8242 93.9596 18.8652 94.2148 18.9199L93.9277 21.0254C93.6816 20.9616 93.4082 20.9115 93.1074 20.875C92.8066 20.8385 92.5241 20.8203 92.2598 20.8203C91.6582 20.8203 91.0885 20.9434 90.5508 21.1895C90.0221 21.4264 89.5573 21.7728 89.1562 22.2285C88.7552 22.6751 88.4408 23.2174 88.2129 23.8555C87.985 24.4844 87.8711 25.1862 87.8711 25.9609V34H85.5879V19.0156H87.4746L87.7207 21.7773H87.8164C88.1263 21.2214 88.5 20.7155 88.9375 20.2598C89.375 19.7949 89.8809 19.4258 90.4551 19.1523C91.0384 18.8789 91.6855 18.7422 92.3965 18.7422ZM106.738 29.8984C106.738 30.8555 106.497 31.6621 106.014 32.3184C105.54 32.9655 104.856 33.4531 103.963 33.7812C103.079 34.1094 102.021 34.2734 100.791 34.2734C99.7428 34.2734 98.8359 34.1914 98.0703 34.0273C97.3047 33.8633 96.6348 33.6309 96.0605 33.3301V31.2383C96.6712 31.5391 97.4004 31.8125 98.248 32.0586C99.0957 32.3047 99.9616 32.4277 100.846 32.4277C102.14 32.4277 103.079 32.2181 103.662 31.7988C104.245 31.3796 104.537 30.8099 104.537 30.0898C104.537 29.6797 104.419 29.3197 104.182 29.0098C103.954 28.6908 103.566 28.3854 103.02 28.0938C102.473 27.793 101.716 27.4648 100.75 27.1094C99.793 26.7448 98.9635 26.3848 98.2617 26.0293C97.569 25.6647 97.0312 25.2227 96.6484 24.7031C96.2747 24.1836 96.0879 23.5091 96.0879 22.6797C96.0879 21.4128 96.5983 20.4421 97.6191 19.7676C98.6491 19.084 99.998 18.7422 101.666 18.7422C102.568 18.7422 103.411 18.8333 104.195 19.0156C104.988 19.1888 105.727 19.4258 106.41 19.7266L105.645 21.5449C105.025 21.2806 104.364 21.0573 103.662 20.875C102.96 20.6927 102.245 20.6016 101.516 20.6016C100.467 20.6016 99.6608 20.7747 99.0957 21.1211C98.5397 21.4674 98.2617 21.9414 98.2617 22.543C98.2617 23.0078 98.3893 23.3906 98.6445 23.6914C98.9089 23.9922 99.3281 24.2747 99.9023 24.5391C100.477 24.8034 101.233 25.1133 102.172 25.4688C103.111 25.8151 103.922 26.1751 104.605 26.5488C105.289 26.9134 105.813 27.36 106.178 27.8887C106.551 28.4082 106.738 29.0781 106.738 29.8984Z" fill="white"/>
<g filter="url(#filter0_d_410_768)">
<path d="M23.1613 46.7758C22.9884 46.9079 22.7482 46.9071 22.5762 46.7738C10.8578 37.6897 4 23.6963 4 8.86932V5.37036C4 5.11986 4.17188 4.90012 4.4142 4.83661C16.4305 1.68723 29.1819 1.63201 41.2088 4.74067L41.5903 4.83928C41.8315 4.90162 42 5.11918 42 5.36828V8.66022C42 23.6061 35.0348 37.6984 23.1613 46.7758Z" fill="url(#paint0_linear_410_768)"/>
</g>
<defs>
<filter id="filter0_d_410_768" x="0" y="2.44141" width="46" height="52.4336" filterUnits="userSpaceOnUse" color-interpolation-filters="sRGB">
<feFlood flood-opacity="0" result="BackgroundImageFix"/>
<feColorMatrix in="SourceAlpha" type="matrix" values="0 0 0 0 0 0 0 0 0 0 0 0 0 0 0 0 0 0 127 0" result="hardAlpha"/>
<feOffset dy="4"/>
<feGaussianBlur stdDeviation="2"/>
<feComposite in2="hardAlpha" operator="out"/>
<feColorMatrix type="matrix" values="0 0 0 0 0 0 0 0 0 0 0 0 0 0 0 0 0 0 0.25 0"/>
<feBlend mode="normal" in2="BackgroundImageFix" result="effect1_dropShadow_410_768"/>
<feBlend mode="normal" in="SourceGraphic" in2="effect1_dropShadow_410_768" result="shape"/>
</filter>
<linearGradient id="paint0_linear_410_768" x1="43.6392" y1="-2.90952" x2="12.0678" y2="46.9187" gradientUnits="userSpaceOnUse">
<stop stop-color="#E95DF5"/>
<stop offset="1" stop-color="#A251F2"/>
</linearGradient>
</defs>
</svg>
